<?xml version="1.0" encoding="UTF-8"?> <svg xmlns="http://www.w3.org/2000/svg" width="2494" height="753" viewBox="0 0 2494 753" fill="none"><g clip-path="url(#clip0_2973_1357)"><path fill-rule="evenodd" clip-rule="evenodd" d="M189.986 121.42C164.502 110.054 0.645178 22.1403 0 1.64977L2.07892 0.167808C4.28047 -0.0739119 7.8716 -0.251088 9.68083 1.09799C21.8705 10.1872 34.3662 18.7512 46.9872 27.1987C74.5676 45.6264 102.976 62.7848 132.122 78.6193C288.472 162.816 454.847 226.891 627.283 269.318C738.328 298.219 851.321 319.03 965.376 331.584C1383.25 376.787 1867.12 314.367 2248.7 137.288C2309.21 109.02 2367.46 78.0359 2424.56 43.3902C2435.45 36.7841 2445.97 29.1499 2456.34 21.6179C2466.89 13.9651 2477.29 6.41635 2487.79 0.153885C2488.1 0.149573 2488.39 0.14432 2488.64 0.13962C2489.81 0.117653 2490.34 0.107781 2490.81 0.262636C2491.2 0.389015 2491.55 0.625109 2492.19 1.05388C2492.66 1.37285 2493.29 1.79844 2494.22 2.36481L2494.8 4.96173C2487.29 26.9747 2305.25 122.307 2305.25 122.307C2305.25 122.307 2192.29 175.977 2137.81 197.303C2119.29 204.505 2100.31 211.299 2081.35 218.083C2068.96 222.52 2056.57 226.953 2044.34 231.492C2046.57 237.101 2048.73 243.405 2050.8 249.456C2051.52 251.57 2052.23 253.653 2052.93 255.665C2076.53 255.664 2080.34 260.985 2087.18 283.275C2103.47 285.546 2121.6 289.142 2134.79 299.268C2186.51 338.958 2184.61 432.408 2149.81 482.322C2146.27 487.754 2138.36 494.874 2131.28 494.887C2076.91 494.983 2011.94 446.788 2004.47 391.204C2000.16 359.1 2006.15 330.744 2024.91 305.486C2019.09 277.878 2021.32 269.419 2047.25 257.337C2045.65 251.667 2043.71 245.673 2041.81 239.812C2041 237.303 2040.2 234.818 2039.43 232.394C2029.61 235.471 2019.63 238.661 2009.58 241.876C1983.92 250.079 1957.78 258.437 1932.67 265.446C1888.39 277.341 1843.85 288.201 1799.08 298.015C1804.11 306.325 1811.2 319.144 1814.59 328.043C1833.82 328.297 1835.86 334.06 1841.54 350.136L1842 351.447C1911.2 367.814 1931.5 434.496 1916.27 497.379C1910.2 522.373 1891.83 563.08 1870.14 577.698C1845.64 586.934 1808.17 559.822 1790.99 544.11C1764.6 519.312 1742.02 488.564 1740.9 451.071C1739.84 415.642 1750.43 393.087 1773.71 367.775C1776.52 341.756 1781.97 336.822 1806.87 329.559L1795.51 298.969C1705.16 317.891 1620.77 332.949 1529.08 341.836L1532.88 368.257C1550.48 369.201 1561.86 375.916 1568.4 392.753C1585.75 399.473 1599 406.041 1611.67 420.736C1656.49 472.698 1636.12 563.848 1590.59 608.318C1563.9 631.995 1513.06 583.794 1497.81 565.027C1460.02 518.546 1446.1 451.634 1497.39 409.405C1493.44 383.034 1505.06 373.647 1529.2 368.652C1527.52 362.579 1526.2 354.56 1525.04 347.498C1524.75 345.726 1524.47 344.014 1524.2 342.408C1449.95 352.493 1339.98 356.606 1265.42 358.145C1259.03 371.466 1256.34 384.125 1255.58 398.735C1285.21 403.612 1293.63 416.481 1294.11 445.654C1321.08 455.995 1342.53 477.833 1355.66 503.169C1401.52 591.641 1344.59 699.654 1265.67 747.191C1246.88 758.345 1233.41 748.754 1218.5 737.654C1129.33 671.301 1080.48 503.912 1203.62 443.407C1203.55 442.417 1203.5 441.425 1203.48 440.431C1202.69 407.88 1221.06 399.278 1250.07 398.785C1249.99 382.879 1253.05 372.808 1259.05 358.444C1157.8 358.967 1056.59 353.801 955.914 342.969C956.021 353.375 956.312 363.781 956.786 374.177C978.461 384.15 979.301 390.698 979.564 413.131C1070.03 464.545 1023.37 586.219 949.53 627.653C931.187 638.28 915.114 624.532 902.713 611.493C846.971 552.886 827.608 448.847 914.073 408.517C917.451 382.249 924.361 372.098 951.745 373.486C951.393 366.498 951.19 359.312 950.989 352.186C950.897 348.932 950.806 345.687 950.701 342.483C866.604 334.088 784.699 317.797 702.232 300.135C701.227 309.684 699.722 315.38 697.325 324.446L697.028 325.571C717.843 337.551 716.507 346.312 711.754 368.21C756.124 400.025 757.836 457.027 732.11 501.026C715.93 528.701 682.983 564.825 652.073 574.374C618.855 584.636 587.222 512.787 581.888 488.284C574.321 455.823 576.395 421.776 594.143 393.182C606.371 373.445 626.011 359.444 648.657 354.32C656.629 328.143 662.875 320.146 691.638 324.184L697.49 299.123C618.019 281.128 539.515 259.107 462.278 233.146C454.991 241.515 451.889 248.188 447.456 258.093C464.451 269.773 465.102 280.297 462.124 299.782C516.08 358.916 484.547 441.165 425.173 483.264C393.831 505.488 364.856 519.542 339.999 480.067C309.116 431.02 295.853 364.314 334.537 315.301C350.395 294.946 373.73 281.773 399.351 278.712C408.683 258.943 418.703 252.372 440.125 256.451C445.429 246.201 448.698 240.149 455.997 231.24C366.961 202.161 280.144 166.683 196.224 125.083L189.986 121.42Z" fill="white"></path><path d="M1814.63 328.049C1834.37 328.31 1835.99 334.378 1842.04 351.453C1911.24 367.82 1931.54 434.502 1916.31 497.385C1910.24 522.379 1891.87 563.086 1870.18 577.704C1866.11 577.36 1863.7 576.995 1859.7 576.199L1860.14 574.87C1817.78 564.627 1771.67 522.189 1756.09 481.704C1745.96 454.6 1746.96 424.593 1758.87 398.224C1765.07 384.378 1774.15 373.052 1788.65 367.54L1800.66 363.48C1811.9 359.641 1826.92 357.718 1838.73 357.041C1832.91 352.769 1832.45 353.3 1825.1 352.798C1827.84 352.538 1828.97 352.277 1831.64 351.565C1835.72 345.46 1831.05 340.196 1826.65 336.231C1822.48 332.455 1819.06 333.295 1813.87 333.775C1811.63 332.993 1812.48 333.689 1811.3 331.586L1814.63 328.049Z" fill="#128D41"></path><path d="M1788.65 367.55L1800.66 363.49C1792.73 372.421 1768.33 395.6 1772.84 408.511C1770.16 410.47 1768.71 413.676 1768.98 416.976C1763.43 466.755 1796.93 520.05 1846.69 531.801C1869.03 537.076 1900.18 500.557 1898.31 481.788C1898.87 479.051 1899.99 475.581 1900.79 472.838C1903.42 466.372 1905.38 451.176 1908.56 446.961L1910.27 447.428L1913.05 455.46C1914.12 488.949 1893.05 561.583 1860.14 574.88C1817.78 564.637 1771.67 522.199 1756.09 481.714C1745.96 454.61 1746.96 424.602 1758.87 398.233C1765.07 384.388 1774.15 373.062 1788.65 367.55Z" fill="#08772B"></path><path d="M1814.62 328.049C1834.36 328.31 1835.98 334.378 1842.03 351.453C1911.23 367.82 1931.53 434.502 1916.29 497.385C1910.23 522.379 1891.85 563.086 1870.16 577.704C1866.1 577.36 1863.68 576.995 1859.68 576.199L1860.13 574.87C1893.03 561.573 1914.1 488.94 1913.04 455.451C1912.55 436.06 1908.7 413.747 1897.44 397.593C1893.75 391.23 1889.5 385.463 1884.01 380.543L1880.05 377.078C1869.35 367.267 1853.08 359.491 1838.71 357.041C1832.89 352.769 1832.44 353.3 1825.08 352.798C1827.83 352.538 1828.96 352.277 1831.63 351.565C1835.7 345.46 1831.03 340.196 1826.64 336.231C1822.46 332.455 1819.05 333.295 1813.86 333.775C1811.62 332.993 1812.47 333.689 1811.29 331.586L1814.62 328.049Z" fill="white"></path><path d="M1880.07 377.076L1884.04 380.541C1889.53 385.462 1893.78 391.229 1897.46 397.592C1908.73 413.746 1912.57 436.059 1913.07 455.449L1910.28 447.417L1908.57 446.95C1905.4 451.166 1903.44 466.361 1900.8 472.827C1903.17 431.257 1897.91 405.296 1867.57 375.57C1873 377.885 1875.43 381.243 1880.07 377.076Z" fill="#34A67A"></path><path d="M1897.45 397.578C1897.36 399.378 1896.84 400.937 1896.38 402.678L1894.78 402.216C1889.87 397.244 1885.1 388.999 1882.12 382.677L1884.02 380.527C1889.52 385.448 1893.77 391.215 1897.45 397.578Z" fill="#F7FDFB"></path><path d="M1858.76 377.998C1870.1 386.553 1878.29 393.957 1885.35 406.679L1882.25 408.298C1881.63 411.255 1881.4 413.128 1881.12 416.139C1870.88 427.558 1847.79 399.641 1854.7 383.364C1856.61 382.228 1857.6 379.99 1858.76 377.998Z" fill="white"></path><path d="M1858.77 377.998C1870.11 386.553 1878.3 393.957 1885.36 406.679L1882.26 408.298C1881.64 411.255 1881.41 413.128 1881.14 416.139C1879.78 399.073 1870.67 389.074 1854.71 383.364C1856.62 382.228 1857.61 379.99 1858.77 377.998Z" fill="#08772B"></path><path d="M1858.76 377.985C1848.7 371.359 1837.69 368.806 1832.15 364.659L1832.72 363.266C1845.04 359.069 1856.88 369.868 1867.53 375.572C1897.87 405.297 1903.13 431.259 1900.77 472.828C1899.97 475.572 1898.84 479.042 1898.29 481.778C1897.4 477.596 1898.12 468.205 1898.25 463.397C1898.84 441.646 1895.46 425.969 1885.35 406.667C1878.29 393.944 1870.1 386.541 1858.76 377.985Z" fill="#F7FDFB"></path><path d="M1772.83 408.491C1776.32 405.93 1781.11 406.049 1784.46 408.784C1787.83 411.517 1788.92 416.174 1787.12 420.117C1785.32 424.059 1781.1 426.291 1776.82 425.548C1772.55 424.806 1769.33 421.275 1768.97 416.957C1768.69 413.656 1770.15 410.45 1772.83 408.491Z" fill="#F7DB29"></path><path d="M1880.88 430.994L1884.99 431.917C1902.8 445.196 1888.03 491.098 1880.22 507.411L1878.28 508.886L1877.2 508.242C1891.03 470.649 1885.61 467.956 1880.88 430.994Z" fill="#F7FDFB"></path><path d="M1813.89 333.769C1819.08 333.288 1822.5 332.449 1826.67 336.224C1831.06 340.189 1835.73 345.454 1831.66 351.559C1828.99 352.27 1827.86 352.532 1825.12 352.792C1832.47 353.294 1832.93 352.762 1838.75 357.035C1826.94 357.712 1811.92 359.634 1800.68 363.474L1788.67 367.534C1786.39 366.804 1785.78 366.435 1783.68 365.27C1785.62 364.422 1786.49 364.132 1787.58 362.165C1784.97 361.941 1784.71 361.445 1782.57 359.7C1778.11 343.367 1803.34 336.858 1813.89 333.769Z" fill="#F7DB29"></path><path d="M1825.1 352.801C1832.45 353.303 1832.91 352.772 1838.73 357.044C1826.92 357.721 1811.9 359.644 1800.66 363.483L1788.65 367.543C1786.37 366.813 1785.76 366.445 1783.66 365.279C1785.6 364.431 1786.47 364.141 1787.56 362.175C1795.85 357.078 1815.37 354.33 1825.1 352.801Z" fill="white"></path><path d="M1227.4 445.356C1234 444.135 1242.62 444.283 1249.45 444.164C1257.37 444.598 1276.61 445.822 1282.67 450.291C1324.3 464.658 1356.57 506.015 1361.25 549.73C1367.2 581.099 1359.82 626.865 1341.81 653.246C1325.69 687.712 1285.15 734.29 1248.93 748.357C1244.52 746.619 1239.05 744.167 1235.12 741.465C1160.17 689.763 1106.13 575.042 1159.51 490.531C1171.51 471.528 1192.35 452.599 1214.73 447.832C1217.39 446.657 1224.19 445.848 1227.4 445.356Z" fill="#DF2747"></path><path d="M1248.93 748.349C1244.52 746.612 1239.05 744.159 1235.12 741.457C1160.17 689.756 1106.13 575.035 1159.51 490.524C1171.51 471.52 1192.35 452.592 1214.73 447.824C1214.57 448.029 1214.4 448.233 1214.24 448.438C1184.84 473.634 1166.15 500.119 1165.29 539.634C1164.33 583.432 1181.42 629.985 1214.74 657.653C1251.7 688.356 1295.06 694.979 1331.03 660.129C1333.39 657.837 1338.61 654.198 1341.81 653.238C1325.69 687.704 1285.15 734.283 1248.93 748.349Z" fill="#CB0F3E"></path><path d="M1282.66 450.291C1324.29 464.659 1356.56 506.016 1361.24 549.73C1362.41 578.127 1355.86 601.465 1344.25 627.181C1354.05 580.974 1339.01 522.017 1311.85 483.156C1306.41 475.372 1283.93 457.692 1282.66 450.291Z" fill="#ECA1E2"></path><path d="M1297.35 482.789C1316.32 487.353 1334.49 520.581 1319.51 538.103C1306.09 533.042 1281.31 495.022 1297.35 482.789Z" fill="#F7FDFB"></path><path d="M1323.39 546.891C1338.82 556.091 1326.49 612.735 1320.15 627.885C1319.23 628.817 1318.61 628.916 1317.33 629.508L1316.23 628.24C1315.99 621.747 1320.27 605.444 1321.04 595.923C1321.86 585.708 1320.04 553.837 1323.39 546.891Z" fill="#F7FDFB"></path><path d="M1186.43 489.912C1203.22 492.005 1201.07 508.594 1191.09 517.939C1174.15 517.515 1176.56 499.237 1186.43 489.912Z" fill="#F7FDFB"></path><path d="M1307.96 638.119C1309.43 639.631 1308.78 638.929 1309.38 641.454C1307.4 648.009 1302.86 651.505 1297.31 655.043C1295.95 653.341 1296.11 652.784 1296.02 650.624C1298.49 645.728 1303.73 641.803 1307.96 638.119Z" fill="#F7FDFB"></path><path d="M407.872 278.582C408.764 275.813 410.847 272.628 412.533 270.252C416.342 264.921 422.135 261.344 428.608 260.325C435.657 259.23 442.446 262.091 448.036 266.194C455.909 272.547 459.296 285.465 455.277 294.572C453.629 296.083 451.636 297.719 450.462 299.558C458.23 306.004 462.723 310.312 468.167 319.239C469.736 321.146 471.199 323.144 472.353 325.31C504.631 385.848 457.539 460.617 402.84 489.06C394.051 493.632 377.424 501.415 367.492 497.328C353.201 491.447 341.526 467.947 334.147 454.97C319.695 424.715 312.125 382.209 324.096 349.897C334.24 322.518 348.29 306.1 374.179 293.54C388.647 286.829 398.072 285.818 413.615 285.545C407.608 282.625 408.536 284.107 405.371 279.046L406.295 276.92L407.872 278.582Z" fill="#DF2747"></path><path d="M468.167 319.239C469.736 321.146 471.199 323.145 472.353 325.31C504.631 385.849 457.539 460.618 402.84 489.061C394.051 493.632 377.424 501.415 367.492 497.329C353.201 491.448 341.526 467.948 334.147 454.971C319.695 424.715 312.125 382.209 324.096 349.897C334.24 322.518 348.29 306.1 374.179 293.541C368.273 302.796 360.844 310.678 355.467 320.3C340.797 346.549 342.325 377.467 347.901 405.802C358.818 461.277 396.335 479.706 443.344 443.459L443.819 441.871C478.038 406.591 480.654 363.944 468.167 319.239Z" fill="#CB0F3E"></path><path d="M407.891 278.582C408.784 275.813 410.867 272.628 412.552 270.252C416.362 264.921 422.154 261.344 428.627 260.325C435.677 259.23 442.465 262.091 448.055 266.194C455.928 272.547 459.316 285.465 455.296 294.572C453.649 296.083 451.655 297.719 450.481 299.558L448.933 298.455C439.574 289.624 425.886 287.565 413.634 285.545C407.627 282.625 408.556 284.107 405.391 279.046L406.314 276.92L407.891 278.582Z" fill="#9DD42C"></path><path d="M413.634 285.554C407.627 282.635 408.556 284.117 405.391 279.056L406.314 276.93L407.891 278.591C421.535 280.716 436.245 283.404 448.251 290.827L455.296 294.582C453.649 296.093 451.655 297.729 450.481 299.568L448.933 298.464C439.574 289.633 425.886 287.574 413.634 285.554Z" fill="white"></path><path d="M448.071 266.197C455.944 272.55 459.332 285.468 455.312 294.575L448.267 290.82C448.74 282.967 448.052 274.24 448.071 266.197Z" fill="white"></path><path d="M463.425 326.172C456.74 311.072 451.919 309.533 442.489 297.23L443.552 296.412L448.949 298.46L450.497 299.563C458.265 306.009 462.759 310.317 468.202 319.244C480.689 363.948 478.073 406.596 443.854 441.876C443.285 441.108 441.789 438.838 442.351 437.918C452.759 420.916 466.756 398.667 467.644 377.925C467.511 374.218 467.447 371.72 466.821 367.998L465.043 369.415C462.835 360.433 464.617 349.669 459.994 333.059C461.988 331.634 462.587 328.63 463.425 326.172Z" fill="white"></path><path d="M463.407 326.172C468.27 340.693 471.582 363.234 467.627 377.925C467.494 374.219 467.429 371.72 466.804 367.998L465.026 369.416C462.818 360.433 464.6 349.669 459.977 333.059C461.971 331.634 462.57 328.631 463.407 326.172Z" fill="#CB0F3E"></path><path d="M465.071 369.42C460.275 371.094 461.664 371.44 457.876 369.769C451.213 362.196 441.103 329.574 452.988 326.256C456.898 327.594 457.783 329.665 460.022 333.063C464.645 349.674 462.863 360.437 465.071 369.42Z" fill="#F7FDFB"></path><path d="M451.172 380.643C458.173 386.319 449.76 404.596 446.243 411.23C438.609 425.629 427.769 438.311 415.221 448.674L413.602 445.863C414.242 443.041 420.062 438.229 422.467 435.445C436.762 418.89 443.529 400.81 451.172 380.643Z" fill="#F7FDFB"></path><path d="M374.12 316.346C377.642 315.747 381.018 318.008 381.806 321.492C382.595 324.977 380.519 328.47 377.082 329.444C374.687 330.123 372.113 329.424 370.392 327.626C368.67 325.829 368.082 323.228 368.863 320.865C369.644 318.501 371.667 316.764 374.12 316.346Z" fill="#F7FDFB"></path><path d="M906.882 419.929C946.158 400.121 992.95 416.465 1011.7 455.557C1026.25 485.9 1024.75 521.579 1009.02 550.704C999.702 572.158 962.249 626.843 932.243 625.32C920.429 624.722 898.498 596.26 891.304 585.572C871.413 556.028 857.845 515.263 864.894 479.213C870.309 453.052 885.039 434.48 906.882 419.929Z" fill="#F8C313"></path><path d="M906.882 419.93C903.788 429.464 894.447 438.989 889.28 448.379C861.633 498.629 906.827 606.788 975.065 575.248C985.959 570.214 999.349 558.61 1009.02 550.704C999.702 572.159 962.249 626.843 932.243 625.321C920.429 624.722 898.498 596.26 891.304 585.573C871.413 556.028 857.845 515.264 864.894 479.213C870.309 453.053 885.039 434.481 906.882 419.93Z" fill="#F48413"></path><path d="M987.452 442.148C982.215 435.997 978.157 432.845 975.445 425.582C980.882 426.155 990.953 437.574 994.742 441.939C1017.34 467.973 1008 524.13 983.938 547.304L981.943 547.865L980.199 546.047C980.982 541.806 983.792 539.785 986.375 535.609C997.724 517.261 1003.95 495.458 999.406 473.78L997.198 472.277L993.976 473.75C992.273 473.502 991.815 473.125 990.246 472.406C984.988 465.791 972.399 451.898 979.504 444.293L982.867 444.529C986.415 443.931 985.251 444.642 987.452 442.148Z" fill="white"></path><path d="M993.991 473.756C992.289 473.508 991.831 473.131 990.261 472.412C985.003 465.797 972.415 451.904 979.519 444.299L982.882 444.534C989.158 451.42 996.712 463.612 994.11 473.301L993.991 473.756Z" fill="white"></path><path d="M987.46 442.162C994.976 452.908 997.359 460.823 999.414 473.795L997.206 472.291L993.984 473.764L994.103 473.31C996.705 463.621 989.151 451.428 982.875 444.543C986.424 443.945 985.259 444.657 987.46 442.162Z" fill="#F7DB29"></path><path d="M1494.57 420.528C1505.31 407.939 1534.09 400.964 1550.34 399.386C1567.81 397.687 1583.15 404.222 1596.25 415.533C1604.53 422.796 1611.47 431.462 1616.75 441.133C1630.28 468.474 1632.91 496.65 1625.24 526.298C1621.26 548.078 1596.41 612.472 1574.33 609.235C1523.04 601.717 1468.76 531.499 1470.43 479.559C1471.33 451.836 1477.65 437.291 1494.57 420.528Z" fill="#9DD42C"></path><path d="M1625.24 526.301C1621.26 548.081 1596.41 612.475 1574.33 609.237C1523.04 601.72 1468.76 531.502 1470.43 479.562C1471.33 451.838 1477.65 437.293 1494.57 420.531C1466.19 496.887 1554.35 615.067 1608.7 543.536C1610.37 540.435 1611.02 538.98 1612.22 535.667C1615.35 528.847 1617.17 522.402 1619.38 515.264L1620.07 510.404C1623.6 488.485 1624.95 473.582 1617.45 452.566L1616.75 441.136C1630.28 468.477 1632.91 496.653 1625.24 526.301Z" fill="#74BB25"></path><path d="M1556.24 404.574C1585.12 410.078 1604.4 426.381 1617.52 452.564C1625.02 473.58 1623.67 488.483 1620.14 510.402L1617.89 511.042L1616.41 508.405C1617.51 496.052 1617.09 486.669 1614.23 474.641C1612.29 463.338 1607.85 454.362 1602.88 444.182L1600.18 445.341C1594.9 436.094 1592.44 432.414 1584.78 425.467L1586.69 423.039C1576.68 416.232 1564.61 410.479 1556.24 404.574Z" fill="#DBEDC9"></path><path d="M1586.65 423.031C1593.74 429.155 1598.85 435.68 1602.84 444.175L1600.14 445.334C1594.87 436.087 1592.4 432.406 1584.74 425.46L1586.65 423.031Z" fill="#B7E182"></path><path d="M1600.1 445.343C1600.58 450.426 1600.78 452.521 1596.83 455.584C1586.23 453.845 1572.89 431.089 1579.95 424.98L1584.7 425.469C1592.35 432.416 1594.82 436.096 1600.1 445.343Z" fill="white"></path><path d="M1616.35 508.41L1617.83 511.048L1620.09 510.407L1619.4 515.267C1617.19 522.405 1615.37 528.85 1612.24 535.67C1610.65 530.817 1615.2 514.999 1616.35 508.41Z" fill="#B7E182"></path><path d="M1598.49 532.216C1603.02 513.256 1603.63 493.413 1598.17 474.597C1597.24 471.38 1596.4 468.301 1596.44 464.918L1598.36 463.43L1600.67 464.745C1607.06 477.991 1606.58 480.972 1608.4 495.738C1607.74 504.254 1607.36 528.058 1600.26 532.754L1598.49 532.216Z" fill="#F7FDFB"></path><path d="M656.273 360.506C676.268 358.878 710.748 368.484 721.057 386.803C727.619 395.342 731.8 402.602 735.452 412.838C748.913 444.42 738.37 480.505 720.058 508.098C707.917 526.087 656.791 584.087 631.889 563.701C573.364 515.795 558.692 373.851 656.273 360.506Z" fill="#4BCAEA"></path><path d="M735.452 412.836C748.913 444.417 738.37 480.503 720.058 508.096C707.917 526.085 656.791 584.085 631.889 563.699C573.364 515.793 558.692 373.849 656.273 360.504C650.533 363.999 637.915 374.758 635.466 375.405L630.213 379.533C617.115 390.373 611.773 414.719 609.753 430.632C603.169 482.518 644.601 566.218 704.644 514.647C718.919 502.377 730.941 481.818 736.031 463.164L734.693 460.863C735.929 450.372 736.713 440.736 736.3 430.147C736.038 423.417 734.915 419.752 735.452 412.836Z" fill="#1EA6C9"></path><path d="M721.102 386.811C727.664 395.349 731.845 402.61 735.498 412.845C734.96 419.762 736.084 423.427 736.346 430.157C736.758 440.746 735.975 450.382 734.738 460.873C733.549 462.365 732.287 462.916 730.642 463.875L729.149 462.551C730.687 444.091 733.462 427.927 727.444 409.855C725 402.517 718.714 393.993 721.102 386.811Z" fill="#F7FDFB"></path><path d="M635.516 375.406C639.759 377.045 640.622 377.221 643.119 381.101C643.691 385.841 644.01 383.953 641.918 388.24C637.619 391.199 639.482 390.702 634.806 390.75C630.314 387.201 629.886 385.437 630.262 379.534L635.516 375.406Z" fill="white"></path><path d="M711.738 399.566C727.445 404.756 728.677 429.606 724.032 442.904L720.83 443.019C711.079 438.158 709.374 409.307 711.738 399.566Z" fill="white"></path><path d="M712.946 474.42C715.017 475.413 714.087 474.706 715.458 476.993C714.28 485.296 700.709 500.323 694.912 507.169L692.617 506.36C692.825 503.797 709.776 479.691 712.946 474.42Z" fill="#F7FDFB"></path><path d="M2031.15 309.278C2050.26 295.637 2073.3 287.375 2096.98 291.325C2116.93 294.612 2134.7 305.818 2146.25 322.398C2151.91 330.397 2156.5 341.308 2159.54 350.593C2176.31 384.944 2167.02 449.256 2145.02 479.537C2135.14 493.144 2124.39 489.346 2110.95 485.633C2062.6 472.277 2014.96 435.864 2010.94 382.426C2008.96 356.593 2014.11 329.559 2031.15 309.278Z" fill="#7760B7"></path><path d="M2031.15 309.281L2031.11 310.452C2030.81 318.317 2027.82 326.546 2026.62 334.476C2022.01 364.983 2026.35 387.967 2047.13 411.371C2083.38 452.195 2153.94 468.567 2161.3 394.368C2162.32 383.998 2157.43 357.919 2159.54 350.596C2176.31 384.947 2167.02 449.259 2145.02 479.54C2135.14 493.147 2124.39 489.349 2110.95 485.636C2062.6 472.28 2014.96 435.867 2010.94 382.429C2008.96 356.596 2014.11 329.562 2031.15 309.281Z" fill="#3359AE"></path><path d="M2133.35 345.999C2136.96 343.781 2139.82 343.626 2143.99 342.971C2145.6 349.04 2147.22 354.955 2148.44 361.121L2152.87 359.776C2153.55 359.762 2154.87 359.866 2155.31 359.591C2164.67 367.338 2153.82 383.585 2149.79 391.262C2148.54 393.635 2152.11 403.048 2148.87 407.688L2146.18 409.555C2139.45 406.672 2140 399.881 2140.58 393.486C2141.64 381.632 2138.93 369.9 2138.58 358.305C2137.68 357.058 2134.17 348.023 2133.35 345.999Z" fill="#7E6AC8"></path><path d="M2133.35 345.999C2136.96 343.781 2139.82 343.626 2143.99 342.971C2145.6 349.04 2147.22 354.955 2148.44 361.121C2150.17 366.181 2152.17 368.789 2148.27 372.688C2141.38 371.419 2143.56 363.784 2138.58 358.305C2137.68 357.058 2134.17 348.023 2133.35 345.999Z" fill="white"></path><path d="M2101.64 304.396C2116.37 310.62 2126.2 314.037 2125.37 332.269C2112.57 336.524 2096.27 320.374 2097.59 307.739C2097.76 306.061 2100.17 305.237 2101.64 304.396Z" fill="#F7FDFB"></path><path d="M2102.97 299.067C2098.58 298.172 2093.93 297.833 2090.92 294.749L2091.02 292.907C2096.77 290.968 2102.77 295.574 2107.89 297.728C2134.96 309.095 2151.64 329.923 2155.33 359.593C2154.88 359.867 2153.57 359.764 2152.88 359.778C2144.05 327.274 2135.03 312.869 2102.97 299.067Z" fill="white"></path><path d="M2037.47 321.051L2039.94 322.488C2040.48 334.414 2034.98 336.585 2038.14 358.934C2026.6 351.518 2031.27 330.588 2037.47 321.051Z" fill="#F7FDFB"></path><path d="M2127.88 337.061C2130.57 332.022 2129.7 331.675 2133.92 329.553C2140.29 331.461 2141.48 337.084 2143.99 342.99C2139.81 343.646 2136.95 343.8 2133.34 346.019C2131.57 343.003 2129.75 340.016 2127.88 337.061Z" fill="#F7FDFB"></path><path d="M1211.45 441.219C1211.88 430.419 1213.12 421.381 1221.33 413.685C1236.24 399.714 1264.08 401.877 1277.65 416.337C1282.37 422.768 1290.52 436.16 1282.63 442.708C1278.87 443.406 1275.28 441.56 1271.66 440.159L1266.36 439.57C1259.05 444.553 1255.57 440.498 1249.46 444.152C1242.63 444.271 1234.01 444.123 1227.42 445.344C1222.4 444.865 1216.46 444.506 1211.67 443.22L1211.45 441.219Z" fill="#74BB25"></path><path d="M1271.61 440.163C1270.75 432.246 1266 419.218 1267.74 414.599C1271.55 413.053 1272.7 414.564 1277.6 416.342C1282.32 422.772 1290.47 436.164 1282.58 442.712C1278.82 443.411 1275.23 441.564 1271.61 440.163Z" fill="white"></path><path d="M1211.45 441.218C1227.2 438.861 1250.73 435.355 1266.36 439.569C1259.05 444.552 1255.57 440.497 1249.46 444.151C1242.63 444.27 1234.01 444.122 1227.42 445.343C1222.4 444.864 1216.46 444.505 1211.67 443.219L1211.45 441.218Z" fill="white"></path><path d="M920.617 407.815C924.958 385.296 935.48 370.584 960.557 382.016C969.894 386.712 976.925 397.164 973.999 407.724L971.904 410.253C968.841 410.027 967.702 409.881 964.728 409.13C957.157 404.303 930.381 407.013 920.617 407.815Z" fill="#41C269"></path><path d="M960.555 382C969.892 386.696 976.923 397.149 973.997 407.708L971.902 410.237C968.839 410.012 967.7 409.865 964.726 409.114C964.99 398.369 964.313 392.515 960.555 382Z" fill="#FEFA9B"></path><path d="M655.992 353.555C662.211 327.638 674.325 326.855 698.036 332.036C706.68 338.65 713.962 355.659 703.176 362.431C699.613 362.168 698.224 361.551 694.953 360.394C681.35 356.225 669.969 355.094 655.992 353.555Z" fill="#9DD42C"></path><path d="M698.028 332.031C706.672 338.645 713.954 355.654 703.168 362.426C699.605 362.163 698.215 361.546 694.945 360.39C698.491 350.262 697.905 342.728 698.028 332.031Z" fill="#F7DB29"></path><path d="M2059.06 262.941L2072.52 264.244C2075.13 271.657 2078.92 278.352 2082.59 285.305C2068.58 285.24 2056.95 288.587 2044.27 294.023C2039.65 296.608 2034.97 299.407 2030.37 302.072L2030.25 301.133C2026.83 274.867 2031.7 266.276 2059.06 262.941Z" fill="#F8C313"></path><path d="M1527.06 374.102C1544.43 372.296 1553.75 376.753 1561.3 392.18C1549.26 393.676 1540.36 395.404 1528.47 397.967C1519.71 399.945 1512.37 403.12 1503.59 405.136L1502.06 403.331C1501.6 384.553 1510.35 378.463 1527.06 374.102Z" fill="#F7DB29"></path></g><defs><clipPath id="clip0_2973_1357"><rect width="2493.63" height="753" fill="white"></rect></clipPath></defs></svg> 